name rise43.5482peak65.4966fall89.1036.mot
datacolumns 19
datarows 18
range 7.70663400000000 7.73496600000000
endheader
time	ground_force1_vx	ground_force1_vy	ground_force1_vz	ground_force1_px	ground_force1_py	ground_force1_pz	ground_force2_vx	ground_force2_vy	ground_force2_vz	ground_force2_px	ground_force2_py	ground_force2_pz	ground_torque1_x	ground_torque1_y	ground_torque1_z	ground_torque2_x	ground_torque2_y	ground_torque2_z	
7.70663400000000	60.13024100000000	805.34757999999999	60.74787000000000	0.26495600000000	0.00000000000000	0.10349000000000	0.00000000000000	0.00000000000000	0.00000000000000	0.00000000000000	0.00000000000000	0.00000000000000	0.00000000000000	19.19487800000000	0.00000000000000	0.00000000000000	0.00000000000000	0.00000000000000	
7.70829500000000	59.17111000000000	806.96330699999999	60.86510800000000	0.26375200000000	0.00000000000000	0.10352400000000	0.00000000000000	0.00000000000000	0.00000000000000	0.00000000000000	0.00000000000000	0.00000000000000	0.00000000000000	19.26488200000000	0.00000000000000	0.00000000000000	0.00000000000000	0.00000000000000	
7.70996800000000	58.20532600000000	808.38742600000000	60.97613900000000	0.26254800000000	0.00000000000000	0.10356000000000	0.00000000000000	0.00000000000000	0.00000000000000	0.00000000000000	0.00000000000000	0.00000000000000	0.00000000000000	19.33344500000000	0.00000000000000	0.00000000000000	0.00000000000000	0.00000000000000	
7.71163200000000	57.23368700000000	809.62129900000002	61.08069600000000	0.26134300000000	0.00000000000000	0.10359700000000	0.00000000000000	0.00000000000000	0.00000000000000	0.00000000000000	0.00000000000000	0.00000000000000	0.00000000000000	19.40035700000000	0.00000000000000	0.00000000000000	0.00000000000000	0.00000000000000	
7.71330700000000	56.25694300000000	810.66659700000002	61.17845900000000	0.26013600000000	0.00000000000000	0.10363500000000	0.00000000000000	0.00000000000000	0.00000000000000	0.00000000000000	0.00000000000000	0.00000000000000	0.00000000000000	19.46538600000000	0.00000000000000	0.00000000000000	0.00000000000000	0.00000000000000	
7.71497100000000	55.27579800000000	811.52529800000002	61.26906000000000	0.25892500000000	0.00000000000000	0.10367400000000	0.00000000000000	0.00000000000000	0.00000000000000	0.00000000000000	0.00000000000000	0.00000000000000	0.00000000000000	19.52828200000000	0.00000000000000	0.00000000000000	0.00000000000000	0.00000000000000	
7.71663000000000	54.29091200000000	812.19968900000003	61.35209000000000	0.25771100000000	0.00000000000000	0.10371500000000	0.00000000000000	0.00000000000000	0.00000000000000	0.00000000000000	0.00000000000000	0.00000000000000	0.00000000000000	19.58878000000000	0.00000000000000	0.00000000000000	0.00000000000000	0.00000000000000	
7.71830100000000	53.30290500000000	812.69236500000000	61.42710000000000	0.25649100000000	0.00000000000000	0.10375800000000	0.00000000000000	0.00000000000000	0.00000000000000	0.00000000000000	0.00000000000000	0.00000000000000	0.00000000000000	19.64659900000000	0.00000000000000	0.00000000000000	0.00000000000000	0.00000000000000	
7.71996500000000	52.31236400000000	813.00622999999996	61.49361200000000	0.25526600000000	0.00000000000000	0.10380100000000	0.00000000000000	0.00000000000000	0.00000000000000	0.00000000000000	0.00000000000000	0.00000000000000	0.00000000000000	19.70145100000000	0.00000000000000	0.00000000000000	0.00000000000000	0.00000000000000	
7.72163100000000	51.31984100000000	813.14449200000001	61.55112200000000	0.25403400000000	0.00000000000000	0.10384600000000	0.00000000000000	0.00000000000000	0.00000000000000	0.00000000000000	0.00000000000000	0.00000000000000	0.00000000000000	19.75303900000000	0.00000000000000	0.00000000000000	0.00000000000000	0.00000000000000	
7.72329800000000	50.32586000000000	813.11066000000005	61.59910600000000	0.25279400000000	0.00000000000000	0.10389200000000	0.00000000000000	0.00000000000000	0.00000000000000	0.00000000000000	0.00000000000000	0.00000000000000	0.00000000000000	19.80106200000000	0.00000000000000	0.00000000000000	0.00000000000000	0.00000000000000	
7.72496400000000	49.33092300000000	812.90853500000003	61.63702400000000	0.25154500000000	0.00000000000000	0.10393900000000	0.00000000000000	0.00000000000000	0.00000000000000	0.00000000000000	0.00000000000000	0.00000000000000	0.00000000000000	19.84521600000000	0.00000000000000	0.00000000000000	0.00000000000000	0.00000000000000	
7.72663100000000	48.33550800000000	812.54221199999995	61.66433000000000	0.25028700000000	0.00000000000000	0.10398700000000	0.00000000000000	0.00000000000000	0.00000000000000	0.00000000000000	0.00000000000000	0.00000000000000	0.00000000000000	19.88520000000000	0.00000000000000	0.00000000000000	0.00000000000000	0.00000000000000	
7.72830000000000	47.34007800000000	812.01606200000003	61.68047500000000	0.24901900000000	0.00000000000000	0.10403700000000	0.00000000000000	0.00000000000000	0.00000000000000	0.00000000000000	0.00000000000000	0.00000000000000	0.00000000000000	19.92071600000000	0.00000000000000	0.00000000000000	0.00000000000000	0.00000000000000	
7.72996600000000	46.34508500000000	811.33473200000003	61.68491400000000	0.24774000000000	0.00000000000000	0.10408700000000	0.00000000000000	0.00000000000000	0.00000000000000	0.00000000000000	0.00000000000000	0.00000000000000	0.00000000000000	19.95147100000000	0.00000000000000	0.00000000000000	0.00000000000000	0.00000000000000	
7.73163300000000	45.35096900000000	810.50312899999994	61.67711000000000	0.24645100000000	0.00000000000000	0.10413800000000	0.00000000000000	0.00000000000000	0.00000000000000	0.00000000000000	0.00000000000000	0.00000000000000	0.00000000000000	19.97718400000000	0.00000000000000	0.00000000000000	0.00000000000000	0.00000000000000	
7.73330300000000	44.35816700000000	809.52641100000005	61.65654400000000	0.24514900000000	0.00000000000000	0.10419000000000	0.00000000000000	0.00000000000000	0.00000000000000	0.00000000000000	0.00000000000000	0.00000000000000	0.00000000000000	19.99758300000000	0.00000000000000	0.00000000000000	0.00000000000000	0.00000000000000	
7.73496600000000	43.36711300000000	808.40997700000003	61.62271400000000	0.24383600000000	0.00000000000000	0.10424200000000	0.00000000000000	0.00000000000000	0.00000000000000	0.00000000000000	0.00000000000000	0.00000000000000	0.00000000000000	20.01241200000000	0.00000000000000	0.00000000000000	0.00000000000000	0.00000000000000	
